<svg width="416" height="485" viewBox="0 0 416 485" fill="none" xmlns="http://www.w3.org/2000/svg">
<g clip-path="url(#clip0_19_21)">
<g clip-path="url(#clip1_19_21)">
<path d="M198.717 137.567C198.454 137.65 198.015 137.863 197.764 138.073C197.512 138.284 194.793 141.779 191.717 145.859C188.643 149.924 185.852 153.58 185.508 153.979C184.5 155.133 184.563 155.127 180.288 154.627L176.5 154.203L175.755 153.68C175.01 153.156 174.938 153.02 170.737 144.309C168.38 139.453 166.343 135.241 166.186 134.95C165.838 134.286 165.121 133.782 164.329 133.658C163.674 133.555 145.549 136.581 144.89 136.899C143.908 137.385 143.61 138.089 143.428 140.342C143.083 144.914 142.369 154.117 142.192 156.231L142.008 158.593L141.43 159.393C140.871 160.165 140.697 160.278 137.386 161.883C135.478 162.802 133.668 163.596 133.364 163.642C132.058 163.811 131.913 163.742 122.746 158.127C113.338 152.364 113.61 152.516 112.338 152.863C111.717 153.047 98.1849 165.36 97.8413 166.056C97.6499 166.48 97.6043 166.769 97.6565 167.231C97.7184 167.631 99.4363 170.996 102.454 176.613C106.531 184.225 107.158 185.496 107.208 186.176C107.265 187.201 107.265 187.201 104.541 191.618C102.126 195.567 101.636 196.1 100.381 196.34C100.012 196.407 95.2886 196.571 89.8556 196.685C79.5216 196.904 79.4735 196.912 78.6595 197.722C77.6997 198.665 72.861 216.628 73.4406 217.11C73.5224 217.186 77.6387 219.49 82.575 222.236C87.5114 224.981 91.7503 227.399 91.9852 227.592C92.8991 228.33 93.0244 229.021 93.1416 234.229C93.2082 236.881 93.2075 239.366 93.1427 239.778C93.0683 240.251 92.8497 240.748 92.5741 241.111C92.2761 241.517 89.6063 243.41 83.9324 247.238C79.4124 250.278 75.5559 252.969 75.35 253.187C75.1016 253.476 74.9479 253.858 74.8816 254.379C74.7712 255.081 75.0296 255.919 77.4597 263.288C78.9568 267.759 80.327 271.647 80.517 271.927C80.6942 272.19 81.1231 272.538 81.459 272.685C82.0265 272.946 82.7791 272.924 91.926 272.315C102.241 271.624 102.598 271.634 103.628 272.327C104.176 272.71 110.106 281.145 110.413 281.975C110.823 283.134 110.745 283.434 108.237 289.26C102.458 302.684 102.582 302.391 102.677 303.078C102.715 303.428 102.89 303.908 103.039 304.151C103.188 304.393 106.367 307.003 110.101 309.95C116.25 314.809 116.964 315.328 117.588 315.426C117.999 315.491 118.506 315.446 118.789 315.334C119.074 315.207 122.824 312.499 127.152 309.288C131.481 306.077 135.279 303.361 135.623 303.258C136.828 302.838 137.128 302.917 142.505 305.044C145.282 306.138 147.712 307.161 147.888 307.329C148.831 308.181 148.87 308.328 150.578 318.599C152.193 328.278 152.246 328.536 152.743 329.146C153.03 329.504 153.489 329.857 153.815 329.971C155.16 330.448 163.881 331.257 169.504 331.423C172.052 331.496 172.625 331.32 173.232 330.243C173.426 329.899 175.146 325.512 177.043 320.496C179.327 314.509 180.641 311.215 180.872 310.939C181.614 310.086 182.092 309.927 187.015 308.888C192.328 307.755 192.989 307.718 194.007 308.488C194.257 308.683 197.325 311.995 200.807 315.856C204.303 319.72 207.341 323.027 207.576 323.22C207.88 323.471 208.22 323.587 208.806 323.632C209.59 323.709 209.777 323.613 214.668 320.991C224.604 315.661 225.545 315.137 225.899 314.77C226.1 314.583 226.349 314.091 226.445 313.684C226.626 313.025 226.461 312.092 224.566 303.104C223.423 297.673 222.49 292.993 222.505 292.699C222.518 291.622 222.971 291.021 225.936 288.049C227.526 286.471 229.001 285.03 229.213 284.876C229.839 284.365 230.815 284.112 231.666 284.262C232.077 284.326 236.558 285.5 241.602 286.872L250.763 289.344L251.464 289.157C251.84 289.045 252.292 288.85 252.471 288.706C252.722 288.496 260.303 275.027 261.611 272.467C262.102 271.528 262.02 270.656 261.369 269.74C261.114 269.372 257.786 265.926 253.976 262.075C247.134 255.169 247.055 255.079 246.806 254.18L246.558 253.281L247.256 250.031C248.174 245.783 248.236 245.59 248.929 244.855C249.489 244.271 249.87 244.127 259.072 241.183C264.347 239.496 268.774 238.036 268.928 237.951C269.309 237.713 269.955 236.783 270.019 236.372C270.12 235.731 268.995 217.189 268.826 216.678C268.729 216.397 268.437 215.976 268.15 215.712C267.576 215.2 268.223 215.348 252.937 211.928C247.073 210.615 246.972 210.568 246.208 209.572C245.651 208.844 243.723 203.242 243.746 202.402C243.75 201.98 243.89 201.487 244.07 201.14C244.244 200.823 247.23 197.12 250.7 192.914C256.749 185.613 257.025 185.25 257.14 184.518C257.189 184.104 257.177 183.586 257.104 183.356C256.966 182.943 246.281 167.836 245.638 167.157C245.439 166.938 245.004 166.729 244.475 166.615L243.617 166.417L234.277 169.84C229.143 171.721 224.649 173.312 224.294 173.381C223.186 173.582 222.537 173.245 219.954 171.213C217.343 169.161 217.074 168.885 216.769 167.946C216.493 167.121 216.477 167.322 217.825 156.374C218.936 147.327 218.971 147.004 218.741 146.281C218.358 145.048 219.417 145.558 204.467 139.409C201.943 138.387 199.725 137.506 199.543 137.478C199.357 137.464 198.993 137.501 198.717 137.567ZM186.496 177.063C190.598 178.271 193.948 179.595 197.367 181.368C215.542 190.729 227.622 209.571 228.497 229.903C228.686 234.356 228.557 236.461 227.768 241.479C227.039 246.21 226.781 247.357 225.559 251.057C219.831 268.427 205.745 282.279 188.199 287.771C181.551 289.852 175.97 290.615 168.347 290.463C165.966 290.417 157.478 289.019 154.958 288.279C141.933 284.37 131.241 276.749 123.668 265.961C112.845 250.536 110.22 231.211 116.509 213.256C120.645 201.45 129.064 190.88 139.768 184.046C150.33 177.314 162.411 174.228 175.03 175.056C177.363 175.205 184.303 176.421 186.496 177.063Z" fill="url(#paint0_linear_19_21)"/>
</g>
<g clip-path="url(#clip2_19_21)">
<path d="M120.571 30.3734C120.394 30.4301 120.096 30.5737 119.926 30.7162C119.756 30.8587 117.916 33.2242 115.834 35.9854C113.754 38.7363 111.865 41.2106 111.632 41.4808C110.95 42.2619 110.992 42.2581 108.099 41.9193L105.536 41.6325L105.032 41.2782C104.528 40.9239 104.479 40.8316 101.636 34.9368C100.04 31.6501 98.6616 28.7993 98.5553 28.6028C98.3197 28.1532 97.8347 27.8125 97.2988 27.7282C96.8556 27.6584 84.5888 29.7061 84.143 29.9216C83.4786 30.2508 83.277 30.7268 83.1533 32.2517C82.9201 35.346 82.4368 41.5744 82.3174 43.0047L82.1926 44.6035L81.8012 45.1449C81.4233 45.6672 81.3056 45.7439 79.0648 46.83C77.7736 47.4519 76.5485 47.9891 76.3429 48.0202C75.4588 48.135 75.3606 48.0879 69.1569 44.2878C62.7894 40.3879 62.9739 40.4909 62.1132 40.7258C61.6923 40.85 52.5345 49.1833 52.302 49.6545C52.1724 49.9408 52.1416 50.137 52.1769 50.4493C52.2188 50.7203 53.3814 52.9976 55.4238 56.7989C58.1831 61.9506 58.6076 62.8107 58.6408 63.2708C58.6796 63.9645 58.6796 63.9645 56.8364 66.9536C55.2014 69.6265 54.8702 69.9869 54.0208 70.1495C53.7708 70.1948 50.5744 70.3055 46.8975 70.383C39.9038 70.531 39.8713 70.5365 39.3204 71.0845C38.6708 71.7228 35.3961 83.8798 35.7884 84.206C35.8437 84.257 38.6295 85.8164 41.9703 87.6747C45.311 89.533 48.1798 91.169 48.3388 91.2997C48.9573 91.799 49.0421 92.2672 49.1214 95.7915C49.1665 97.5862 49.166 99.268 49.1221 99.5467C49.0718 99.8667 48.9238 100.203 48.7373 100.449C48.5356 100.724 46.7288 102.005 42.8889 104.596C39.8299 106.653 37.22 108.474 37.0806 108.622C36.9125 108.817 36.8085 109.076 36.7636 109.429C36.6889 109.903 36.8637 110.47 38.5084 115.457C39.5215 118.483 40.4489 121.115 40.5775 121.304C40.6974 121.482 40.9877 121.718 41.215 121.817C41.5991 121.994 42.1084 121.979 48.2987 121.567C55.2793 121.099 55.5212 121.106 56.2183 121.575C56.5894 121.834 60.6024 127.543 60.8098 128.105C61.0878 128.889 61.0347 129.092 59.3373 133.035C55.4264 142.119 55.5104 141.921 55.5746 142.386C55.6007 142.623 55.7185 142.948 55.8194 143.112C55.9204 143.276 58.0716 145.042 60.5988 147.037C64.7602 150.326 65.2436 150.677 65.6661 150.743C65.9444 150.787 66.2872 150.756 66.4786 150.681C66.6717 150.595 69.2095 148.762 72.1388 146.589C75.0681 144.416 77.6385 142.578 77.8712 142.508C78.6869 142.224 78.8897 142.277 82.5287 143.717C84.4084 144.457 86.0526 145.149 86.172 145.263C86.81 145.84 86.8367 145.939 87.9927 152.891C89.0852 159.441 89.1211 159.616 89.4575 160.028C89.6517 160.27 89.9626 160.51 90.1829 160.587C91.0931 160.91 96.9952 161.457 100.801 161.569C102.525 161.618 102.913 161.5 103.324 160.771C103.455 160.538 104.62 157.569 105.903 154.174C107.449 150.123 108.338 147.893 108.494 147.706C108.997 147.129 109.32 147.022 112.652 146.319C116.247 145.551 116.695 145.526 117.384 146.047C117.553 146.18 119.63 148.421 121.986 151.034C124.352 153.649 126.408 155.887 126.567 156.018C126.772 156.187 127.003 156.266 127.399 156.297C127.93 156.348 128.056 156.284 131.367 154.509C138.091 150.902 138.728 150.547 138.967 150.299C139.104 150.173 139.272 149.839 139.337 149.564C139.46 149.118 139.348 148.487 138.065 142.404C137.292 138.728 136.66 135.561 136.67 135.362C136.679 134.633 136.986 134.227 138.992 132.215C140.068 131.147 141.067 130.172 141.21 130.068C141.634 129.722 142.295 129.551 142.87 129.652C143.148 129.696 146.181 130.49 149.594 131.418L155.795 133.092L156.269 132.965C156.523 132.889 156.829 132.757 156.95 132.66C157.12 132.518 162.251 123.403 163.136 121.67C163.468 121.034 163.413 120.444 162.972 119.824C162.8 119.575 160.548 117.243 157.969 114.637C153.339 109.963 153.285 109.902 153.117 109.294L152.948 108.685L153.421 106.486C154.042 103.611 154.084 103.48 154.553 102.983C154.932 102.587 155.19 102.49 161.418 100.498C164.988 99.3561 167.984 98.3677 168.088 98.3101C168.346 98.1496 168.783 97.5202 168.827 97.2415C168.895 96.808 168.133 84.2593 168.019 83.9134C167.953 83.7233 167.755 83.4383 167.562 83.2598C167.173 82.913 167.611 83.0136 157.266 80.6989C153.297 79.8102 153.229 79.7782 152.711 79.1045C152.335 78.6116 151.03 74.8205 151.046 74.2517C151.048 73.9665 151.143 73.6324 151.265 73.3976C151.383 73.1835 153.403 70.6771 155.752 67.8309C159.846 62.8897 160.032 62.644 160.11 62.1486C160.144 61.8683 160.135 61.5179 160.086 61.362C159.992 61.0829 152.761 50.8591 152.326 50.3994C152.191 50.2512 151.897 50.1096 151.539 50.0323L150.958 49.8986L144.637 52.2151C141.163 53.488 138.121 54.5645 137.881 54.6114C137.131 54.7472 136.692 54.5195 134.944 53.1444C133.177 51.7558 132.995 51.5685 132.789 50.9331C132.602 50.3749 132.591 50.5107 133.503 43.1016C134.255 36.979 134.279 36.7606 134.123 36.2708C133.864 35.4366 134.58 35.7821 124.463 31.6201C122.755 30.9284 121.254 30.3327 121.13 30.3132C121.005 30.3041 120.758 30.3287 120.571 30.3734ZM112.301 57.1035C115.077 57.9209 117.344 58.817 119.658 60.0167C131.958 66.3518 140.133 79.104 140.725 92.8636C140.853 95.8772 140.766 97.3021 140.232 100.698C139.739 103.9 139.564 104.676 138.737 107.18C134.86 118.935 125.328 128.31 113.453 132.027C108.954 133.435 105.177 133.951 100.018 133.849C98.4069 133.817 92.6625 132.872 90.9564 132.37C82.142 129.725 74.9057 124.567 69.7807 117.267C62.4563 106.827 60.6798 93.7487 64.9357 81.5979C67.7345 73.6077 73.4327 66.4543 80.6765 61.8289C87.8249 57.2731 96.0004 55.1847 104.541 55.7454C106.12 55.8456 110.817 56.6691 112.301 57.1035Z" fill="url(#paint1_linear_19_21)"/>
</g>
<g clip-path="url(#clip3_19_21)">
<path d="M334.701 118.532C334.523 118.589 334.226 118.733 334.055 118.875C333.885 119.018 332.045 121.383 329.963 124.144C327.883 126.895 325.994 129.369 325.761 129.64C325.079 130.421 325.122 130.417 322.228 130.078L319.665 129.791L319.161 129.437C318.657 129.083 318.608 128.99 315.765 123.096C314.169 119.809 312.791 116.958 312.684 116.762C312.449 116.312 311.964 115.971 311.428 115.887C310.985 115.817 298.718 117.865 298.272 118.08C297.608 118.41 297.406 118.886 297.282 120.411C297.049 123.505 296.566 129.733 296.447 131.164L296.322 132.762L295.93 133.304C295.552 133.826 295.435 133.903 293.194 134.989C291.903 135.611 290.678 136.148 290.472 136.179C289.588 136.294 289.49 136.247 283.286 132.447C276.919 128.547 277.103 128.65 276.242 128.885C275.821 129.009 266.664 137.342 266.431 137.813C266.302 138.1 266.271 138.296 266.306 138.608C266.348 138.879 267.511 141.156 269.553 144.958C272.312 150.11 272.737 150.97 272.77 151.43C272.809 152.123 272.809 152.123 270.966 155.113C269.331 157.785 268.999 158.146 268.15 158.308C267.9 158.354 264.704 158.464 261.027 158.542C254.033 158.69 254 158.695 253.45 159.243C252.8 159.882 249.525 172.039 249.918 172.365C249.973 172.416 252.759 173.975 256.099 175.834C259.44 177.692 262.309 179.328 262.468 179.459C263.086 179.958 263.171 180.426 263.251 183.95C263.296 185.745 263.295 187.427 263.251 187.706C263.201 188.026 263.053 188.362 262.866 188.608C262.665 188.883 260.858 190.164 257.018 192.754C253.959 194.812 251.349 196.633 251.21 196.781C251.042 196.976 250.938 197.235 250.893 197.588C250.818 198.062 250.993 198.629 252.638 203.616C253.651 206.642 254.578 209.274 254.707 209.463C254.827 209.641 255.117 209.877 255.344 209.976C255.728 210.153 256.238 210.138 262.428 209.726C269.408 209.258 269.65 209.265 270.347 209.734C270.719 209.993 274.732 215.702 274.939 216.263C275.217 217.048 275.164 217.251 273.466 221.194C269.556 230.278 269.64 230.08 269.704 230.545C269.73 230.782 269.848 231.107 269.949 231.271C270.05 231.435 272.201 233.201 274.728 235.196C278.889 238.485 279.373 238.836 279.795 238.902C280.074 238.946 280.416 238.915 280.608 238.839C280.801 238.753 283.339 236.921 286.268 234.748C289.197 232.575 291.768 230.736 292 230.667C292.816 230.383 293.019 230.436 296.658 231.876C298.538 232.616 300.182 233.308 300.301 233.422C300.939 233.998 300.966 234.098 302.122 241.049C303.214 247.6 303.25 247.775 303.587 248.187C303.781 248.429 304.092 248.669 304.312 248.745C305.222 249.068 311.124 249.616 314.93 249.728C316.654 249.777 317.043 249.658 317.453 248.93C317.585 248.697 318.749 245.727 320.032 242.333C321.578 238.281 322.467 236.052 322.623 235.865C323.126 235.288 323.449 235.18 326.781 234.477C330.376 233.71 330.824 233.685 331.513 234.206C331.682 234.339 333.759 236.58 336.115 239.193C338.481 241.808 340.537 244.046 340.696 244.176C340.902 244.346 341.132 244.425 341.529 244.455C342.059 244.507 342.185 244.442 345.496 242.668C352.22 239.061 352.857 238.706 353.097 238.458C353.233 238.331 353.401 237.998 353.466 237.723C353.589 237.277 353.477 236.646 352.195 230.563C351.421 226.887 350.789 223.72 350.799 223.521C350.808 222.792 351.115 222.386 353.121 220.374C354.198 219.306 355.196 218.331 355.339 218.227C355.763 217.881 356.424 217.71 356.999 217.811C357.277 217.855 360.31 218.649 363.723 219.577L369.924 221.251L370.398 221.124C370.653 221.048 370.958 220.916 371.079 220.819C371.25 220.676 376.38 211.561 377.265 209.828C377.597 209.193 377.542 208.603 377.101 207.983C376.929 207.734 374.677 205.402 372.098 202.796C367.468 198.122 367.414 198.061 367.246 197.453L367.077 196.844L367.55 194.644C368.171 191.77 368.213 191.639 368.682 191.141C369.061 190.746 369.319 190.649 375.547 188.657C379.117 187.515 382.113 186.527 382.217 186.469C382.475 186.308 382.912 185.679 382.956 185.4C383.024 184.967 382.262 172.418 382.148 172.072C382.083 171.882 381.885 171.597 381.691 171.419C381.302 171.072 381.74 171.173 371.395 168.858C367.427 167.969 367.358 167.937 366.841 167.263C366.464 166.77 365.159 162.979 365.175 162.411C365.177 162.125 365.272 161.791 365.394 161.556C365.512 161.342 367.533 158.836 369.881 155.99C373.975 151.049 374.161 150.803 374.239 150.307C374.273 150.027 374.264 149.677 374.215 149.521C374.122 149.242 366.89 139.018 366.455 138.558C366.32 138.41 366.026 138.269 365.668 138.191L365.087 138.057L358.766 140.374C355.292 141.647 352.25 142.723 352.011 142.77C351.26 142.906 350.821 142.678 349.073 141.303C347.306 139.915 347.124 139.727 346.918 139.092C346.731 138.534 346.72 138.67 347.632 131.26C348.384 125.138 348.408 124.919 348.252 124.43C347.993 123.595 348.71 123.941 338.592 119.779C336.884 119.087 335.383 118.492 335.259 118.472C335.134 118.463 334.887 118.488 334.701 118.532ZM326.43 145.262C329.206 146.08 331.473 146.976 333.787 148.176C346.087 154.511 354.262 167.263 354.854 181.022C354.982 184.036 354.896 185.461 354.361 188.857C353.868 192.059 353.693 192.835 352.867 195.339C348.99 207.094 339.457 216.469 327.582 220.186C323.083 221.594 319.306 222.11 314.147 222.008C312.536 221.976 306.792 221.03 305.086 220.529C296.271 217.884 289.035 212.726 283.91 205.425C276.585 194.986 274.809 181.908 279.065 169.757C281.864 161.767 287.562 154.613 294.806 149.988C301.954 145.432 310.13 143.344 318.67 143.904C320.249 144.005 324.946 144.828 326.43 145.262Z" fill="url(#paint2_linear_19_21)"/>
</g>
<g clip-path="url(#clip4_19_21)">
<path d="M93.1486 313.002C93.0295 313.145 92.857 313.427 92.7906 313.639C92.7243 313.85 92.4532 316.835 92.1924 320.283C91.9273 323.722 91.6739 326.825 91.6241 327.178C91.4715 328.204 91.5055 328.177 88.8875 329.455L86.5751 330.598L85.9595 330.572C85.344 330.546 85.253 330.495 79.6766 327.069C76.5589 325.164 73.8589 323.51 73.6632 323.402C73.2222 323.151 72.63 323.126 72.1334 323.344C71.7228 323.525 62.5048 331.874 62.246 332.296C61.8647 332.932 61.9521 333.441 62.6715 334.791C64.1464 337.521 67.1035 343.024 67.7755 344.293L68.534 345.705L68.4969 346.372C68.461 347.016 68.4034 347.144 67.1041 349.269C66.3532 350.489 65.6123 351.603 65.4561 351.74C64.7741 352.314 64.6659 352.328 57.3925 352.48C49.9272 352.637 50.1381 352.624 49.5406 353.287C49.2535 353.618 46.0468 365.578 46.1056 366.1C46.1513 366.411 46.2312 366.593 46.4297 366.836C46.6113 367.042 48.8196 368.33 52.5916 370.427C57.6962 373.272 58.518 373.767 58.7944 374.136C59.2016 374.699 59.2016 374.699 59.2648 378.21C59.3324 381.343 59.2482 381.825 58.6212 382.42C58.4353 382.594 55.805 384.413 52.7523 386.464C46.9463 390.366 46.9218 390.388 46.7542 391.147C46.5522 392.035 50.362 404.035 50.8683 404.098C50.9424 404.111 54.1292 403.918 57.9444 403.678C61.7597 403.438 65.0576 403.265 65.2621 403.289C66.0522 403.376 66.3764 403.724 68.3466 406.647C69.3539 408.133 70.2617 409.549 70.3754 409.807C70.5058 410.104 70.563 410.467 70.5387 410.774C70.5175 411.115 69.6888 413.169 67.8562 417.423C66.393 420.806 65.1801 423.749 65.1424 423.948C65.1066 424.204 65.1587 424.478 65.3114 424.799C65.5049 425.238 65.9583 425.621 70.0358 428.93C72.5228 430.93 74.7245 432.644 74.9351 432.734C75.1319 432.818 75.5037 432.86 75.7486 432.821C76.1673 432.762 76.5878 432.474 81.5751 428.784C87.1976 424.621 87.4046 424.495 88.2448 424.514C88.6972 424.532 95.1577 427.169 95.6355 427.529C96.293 428.039 96.358 428.239 97.0589 432.474C98.674 442.232 98.6375 442.02 98.9426 442.376C99.0925 442.562 99.3674 442.772 99.5409 442.855C99.7144 442.939 102.479 443.263 105.683 443.577C110.961 444.097 111.558 444.132 111.949 443.96C112.207 443.846 112.479 443.635 112.599 443.468C112.715 443.291 113.861 440.378 115.153 436.967C116.445 433.556 117.615 430.621 117.774 430.437C118.307 429.758 118.506 429.693 122.346 428.939C124.328 428.547 126.086 428.241 126.248 428.273C127.096 428.413 127.172 428.482 131.899 433.709C136.357 438.631 136.481 438.759 136.987 438.925C137.281 439.023 137.672 439.057 137.899 439.003C138.84 438.783 144.103 436.056 147.366 434.095C148.844 433.205 149.106 432.896 149.058 432.061C149.043 431.793 148.419 428.666 147.666 425.116C146.779 420.871 146.323 418.514 146.354 418.273C146.465 417.516 146.679 417.251 149.104 414.859C151.715 412.272 152.078 412.009 152.939 412.076C153.153 412.096 156.111 412.86 159.506 413.787C162.909 414.71 165.848 415.483 166.053 415.507C166.317 415.539 166.554 415.481 166.904 415.292C167.379 415.049 167.45 414.926 169.277 411.645C172.989 404.978 173.333 404.335 173.401 403.997C173.447 403.817 173.409 403.446 173.314 403.179C173.177 402.737 172.742 402.266 168.378 397.839C165.741 395.164 163.499 392.84 163.4 392.666C163.014 392.048 163.053 391.54 163.655 388.764C163.984 387.284 164.297 385.924 164.361 385.759C164.531 385.239 164.995 384.738 165.534 384.512C165.792 384.399 168.773 383.429 172.147 382.367L178.269 380.427L178.6 380.065C178.773 379.863 178.959 379.587 179.009 379.439C179.075 379.228 178.47 368.786 178.279 366.849C178.215 366.135 177.85 365.668 177.144 365.385C176.865 365.268 173.71 364.521 170.132 363.721C163.711 362.288 163.633 362.266 163.163 361.845L162.692 361.424L161.902 359.317C160.872 356.562 160.837 356.429 160.963 355.757C161.068 355.22 161.233 354.999 165.398 349.958C167.786 347.07 169.774 344.62 169.831 344.515C169.961 344.241 169.989 343.475 169.875 343.217C169.698 342.815 162.28 332.665 161.997 332.436C161.839 332.311 161.519 332.178 161.259 332.133C160.744 332.051 161.168 331.899 151.211 335.538C147.391 336.933 147.316 336.944 146.517 336.656C145.934 336.444 142.788 333.958 142.494 333.471C142.342 333.23 142.242 332.897 142.217 332.634C142.201 332.39 142.548 329.19 142.987 325.526C143.764 319.156 143.788 318.849 143.586 318.39C143.463 318.136 143.267 317.845 143.141 317.741C142.911 317.556 131.304 312.857 130.69 312.705C130.496 312.654 130.171 312.694 129.829 312.821L129.268 313.023L125.199 318.386C122.963 321.334 120.984 323.883 120.807 324.052C120.249 324.571 119.757 324.617 117.543 324.404C115.306 324.189 115.051 324.13 114.535 323.707C114.076 323.338 114.14 323.458 110.906 316.73C108.232 311.171 108.134 310.974 107.739 310.646C107.07 310.084 107.86 309.988 97.0968 311.949C95.2859 312.289 93.7009 312.599 93.5863 312.649C93.4759 312.709 93.2815 312.863 93.1486 313.002ZM100.624 339.965C103.402 339.153 105.794 338.683 108.39 338.443C122.163 337.132 135.931 343.449 143.86 354.709C145.595 357.176 146.292 358.423 147.677 361.569C148.991 364.53 149.263 365.278 149.919 367.832C153.005 379.819 150.045 392.857 142.059 402.399C139.033 406.014 136.133 408.488 131.736 411.188C130.363 412.032 125.018 414.338 123.311 414.838C114.464 417.372 105.588 416.94 97.3321 413.563C85.5297 408.733 76.9711 398.685 73.9904 386.161C72.0305 377.924 72.9628 368.826 76.5612 361.021C80.1168 353.326 85.8695 347.153 93.36 343.013C94.743 342.244 99.1407 340.401 100.624 339.965Z" fill="url(#paint3_linear_19_21)"/>
</g>
</g>
<defs>
<linearGradient id="paint0_linear_19_21" x1="249.89" y1="303.417" x2="111.287" y2="133.376" gradientUnits="userSpaceOnUse">
<stop stop-color="#529411"/>
<stop offset="0.0001" stop-color="#7CCF29"/>
</linearGradient>
<linearGradient id="paint1_linear_19_21" x1="91.2412" y1="160.798" x2="111.992" y2="28.8759" gradientUnits="userSpaceOnUse">
<stop stop-color="#048633"/>
<stop offset="0.0001" stop-color="#05732D"/>
<stop offset="0.0002" stop-color="#048633"/>
</linearGradient>
<linearGradient id="paint2_linear_19_21" x1="305.37" y1="248.957" x2="326.121" y2="117.035" gradientUnits="userSpaceOnUse">
<stop stop-color="#88B613"/>
<stop offset="0.0001" stop-color="#94C120"/>
</linearGradient>
<linearGradient id="paint3_linear_19_21" x1="138.904" y1="438.609" x2="85.1195" y2="316.375" gradientUnits="userSpaceOnUse">
<stop stop-color="#032B66"/>
<stop offset="0.0001" stop-color="#043E94"/>
</linearGradient>
<clipPath id="clip0_19_21">
<rect width="416" height="485" fill="white"/>
</clipPath>
<clipPath id="clip1_19_21">
<rect width="197.323" height="197.323" fill="white" transform="translate(88.572 120.022) rotate(8.93923)"/>
</clipPath>
<clipPath id="clip2_19_21">
<rect width="133.542" height="133.542" fill="white" transform="translate(46.0288 18.5) rotate(8.93923)"/>
</clipPath>
<clipPath id="clip3_19_21">
<rect width="133.542" height="133.542" fill="white" transform="translate(260.158 106.659) rotate(8.93923)"/>
</clipPath>
<clipPath id="clip4_19_21">
<rect width="133.542" height="133.542" fill="white" transform="translate(24 343.268) rotate(-23.7501)"/>
</clipPath>
</defs>
</svg>
