<svg width="758" height="733" viewBox="0 0 758 733" fill="none" xmlns="http://www.w3.org/2000/svg">
<g clip-path="url(#clip0_41_63)">
<path d="M402.589 420.735C402.367 420.834 402.003 421.064 401.803 421.273C401.603 421.483 399.561 424.819 397.265 428.703C394.968 432.573 392.88 436.057 392.618 436.441C391.847 437.553 391.902 437.542 388.101 437.525L384.735 437.527L384.03 437.141C383.324 436.755 383.248 436.642 378.701 429.413C376.153 425.384 373.95 421.889 373.783 421.65C373.412 421.101 372.734 420.73 372.027 420.699C371.442 420.673 355.835 425.117 355.288 425.461C354.474 425.985 354.282 426.632 354.344 428.627C354.493 432.673 354.775 440.82 354.829 442.692L354.9 444.783L354.471 445.542C354.058 446.275 353.916 446.391 351.169 448.126C349.585 449.121 348.075 449.996 347.813 450.067C346.684 450.344 346.549 450.298 337.951 446.275C329.126 442.147 329.38 442.253 328.298 442.683C327.771 442.906 317.111 455.047 316.879 455.692C316.752 456.082 316.741 456.341 316.832 456.741C316.926 457.086 318.766 459.869 321.968 464.5C326.298 470.778 326.973 471.831 327.084 472.423C327.235 473.317 327.235 473.317 325.281 477.462C323.551 481.166 323.174 481.682 322.096 482.016C321.779 482.111 317.65 482.721 312.894 483.358C303.847 484.57 303.805 484.581 303.171 485.372C302.422 486.295 299.948 502.536 300.505 502.902C300.584 502.96 304.424 504.575 309.026 506.498C313.629 508.42 317.588 510.123 317.813 510.27C318.688 510.827 318.866 511.421 319.483 515.98C319.803 518.3 320.047 520.481 320.031 520.849C320.013 521.271 319.87 521.729 319.664 522.075C319.442 522.461 317.286 524.386 312.685 528.304C309.019 531.418 305.9 534.161 305.741 534.372C305.551 534.65 305.454 535.001 305.447 535.465C305.42 536.091 305.729 536.801 308.589 543.027C310.344 546.803 311.93 550.08 312.125 550.307C312.306 550.52 312.717 550.784 313.026 550.879C313.55 551.053 314.208 550.959 322.175 549.522C331.158 547.898 331.473 547.871 332.445 548.377C332.964 548.66 339 555.476 339.351 556.174C339.826 557.151 339.787 557.422 338.161 562.782C334.414 575.132 334.494 574.863 334.645 575.456C334.714 575.759 334.914 576.164 335.069 576.362C335.223 576.56 338.27 578.536 341.838 580.754C347.714 584.412 348.392 584.796 348.949 584.821C349.317 584.837 349.757 584.747 349.994 584.621C350.232 584.481 353.255 581.735 356.736 578.49C360.218 575.245 363.283 572.487 363.574 572.363C364.591 571.876 364.861 571.915 369.79 573.251C372.335 573.936 374.568 574.594 374.739 574.725C375.651 575.379 375.7 575.504 378.213 584.349C380.584 592.683 380.656 592.905 381.153 593.391C381.44 593.676 381.878 593.941 382.175 594.009C383.402 594.295 391.135 594.144 396.086 593.735C398.329 593.547 398.815 593.336 399.241 592.332C399.378 592.01 400.454 587.99 401.624 583.402C403.037 577.923 403.865 574.902 404.04 574.637C404.608 573.816 405.011 573.629 409.229 572.232C413.779 570.712 414.356 570.615 415.325 571.19C415.564 571.337 418.583 573.94 422.019 576.985C425.469 580.03 428.461 582.632 428.686 582.779C428.978 582.969 429.288 583.037 429.807 583.019C430.502 583.009 430.656 582.906 434.69 580.122C442.883 574.465 443.657 573.912 443.932 573.555C444.09 573.371 444.26 572.915 444.303 572.548C444.398 571.952 444.16 571.15 441.611 563.449C440.072 558.796 438.79 554.782 438.775 554.522C438.68 553.576 439.019 553.004 441.327 550.103C442.566 548.561 443.719 547.151 443.889 546.995C444.388 546.485 445.22 546.166 445.981 546.214C446.348 546.23 450.397 546.818 454.958 547.523L463.241 548.789L463.838 548.556C464.157 548.42 464.534 548.205 464.677 548.061C464.877 547.851 470.2 535.284 471.095 532.908C471.433 532.036 471.276 531.278 470.613 530.539C470.354 530.241 467.093 527.545 463.369 524.543C456.684 519.157 456.606 519.086 456.299 518.322L455.992 517.557L456.284 514.636C456.67 510.818 456.705 510.642 457.241 509.929C457.674 509.361 457.995 509.198 465.78 505.706C470.242 503.705 473.983 501.986 474.11 501.896C474.42 501.651 474.895 500.771 474.911 500.403C474.937 499.831 472.119 483.671 471.92 483.239C471.808 483.002 471.51 482.661 471.232 482.458C470.677 482.065 471.26 482.132 457.509 480.639C452.233 480.065 452.139 480.034 451.371 479.235C450.81 478.651 448.566 473.926 448.503 473.186C448.465 472.816 448.539 472.369 448.662 472.047C448.784 471.752 451.039 468.207 453.669 464.174C458.257 457.17 458.463 456.824 458.491 456.17C458.494 455.802 458.432 455.349 458.345 455.154C458.184 454.806 447.316 442.604 446.685 442.071C446.488 441.898 446.086 441.758 445.611 441.71L444.838 441.621L436.98 445.547C432.661 447.704 428.873 449.543 428.569 449.639C427.616 449.924 427.013 449.693 424.546 448.165C422.052 446.622 421.789 446.406 421.429 445.612C421.105 444.915 421.111 445.093 421.213 435.353C421.295 427.305 421.294 427.018 421.021 426.405C420.563 425.362 421.543 425.705 407.817 421.784C405.501 421.136 403.468 420.582 403.305 420.575C403.141 420.582 402.825 420.65 402.589 420.735ZM395.763 456.601C399.482 457.256 402.552 458.087 405.728 459.305C422.601 465.726 435.061 481.069 437.835 498.824C438.44 502.713 438.536 504.574 438.338 509.055C438.166 513.278 438.052 514.311 437.345 517.678C434.033 533.486 423.039 547.032 408.184 553.583C402.555 556.065 397.732 557.286 391.028 557.905C388.935 558.099 381.348 557.71 379.063 557.309C367.248 555.165 357.113 549.532 349.403 540.813C338.383 528.345 334.172 511.645 337.919 495.269C340.382 484.5 346.728 474.394 355.446 467.34C364.051 460.39 374.347 456.49 385.503 455.971C387.565 455.871 393.775 456.254 395.763 456.601Z" fill="url(#paint0_linear_41_63)"/>
</g>
<g clip-path="url(#clip1_41_63)">
<path d="M398.638 280.638C398.453 280.721 398.149 280.914 397.983 281.089C397.817 281.264 396.123 284.052 394.217 287.298C392.312 290.533 390.579 293.444 390.362 293.765C389.721 294.695 389.767 294.686 386.596 294.682L383.789 294.692L383.2 294.372C382.61 294.052 382.546 293.958 378.734 287.94C376.599 284.586 374.751 281.676 374.612 281.477C374.301 281.02 373.734 280.712 373.144 280.688C372.656 280.668 359.649 284.417 359.193 284.705C358.516 285.144 358.358 285.684 358.415 287.348C358.55 290.723 358.806 297.518 358.856 299.08L358.921 300.824L358.565 301.458C358.222 302.07 358.105 302.168 355.818 303.623C354.499 304.456 353.242 305.191 353.023 305.25C352.082 305.485 351.97 305.446 344.787 302.113C337.414 298.693 337.626 298.781 336.725 299.143C336.286 299.329 327.426 309.485 327.234 310.024C327.129 310.35 327.121 310.566 327.198 310.899C327.277 311.187 328.819 313.503 331.503 317.358C335.13 322.583 335.697 323.46 335.79 323.954C335.919 324.699 335.919 324.699 334.3 328.161C332.867 331.256 332.553 331.687 331.655 331.969C331.391 332.049 327.949 332.569 323.983 333.112C316.439 334.147 316.405 334.157 315.878 334.818C315.255 335.59 313.235 349.144 313.7 349.448C313.766 349.496 316.973 350.834 320.818 352.425C324.662 354.017 327.969 355.427 328.157 355.548C328.888 356.011 329.039 356.506 329.565 360.307C329.838 362.242 330.048 364.06 330.036 364.367C330.021 364.719 329.903 365.102 329.732 365.391C329.549 365.713 327.755 367.325 323.927 370.606C320.877 373.213 318.283 375.509 318.151 375.685C317.993 375.918 317.913 376.211 317.909 376.598C317.888 377.12 318.147 377.711 320.549 382.898C322.023 386.043 323.355 388.772 323.518 388.961C323.67 389.138 324.013 389.357 324.271 389.436C324.709 389.579 325.258 389.499 331.899 388.279C339.389 386.901 339.651 386.877 340.463 387.298C340.897 387.532 345.95 393.202 346.245 393.783C346.643 394.596 346.611 394.823 345.269 399.298C342.177 409.61 342.243 409.385 342.37 409.88C342.428 410.133 342.596 410.47 342.726 410.634C342.855 410.799 345.402 412.44 348.384 414.281C353.295 417.316 353.862 417.635 354.327 417.654C354.633 417.666 355 417.59 355.198 417.484C355.396 417.367 357.91 415.068 360.806 412.352C363.701 409.636 366.251 407.327 366.494 407.223C367.34 406.814 367.566 406.846 371.681 407.948C373.806 408.513 375.67 409.056 375.813 409.164C376.575 409.707 376.617 409.811 378.736 417.183C380.736 424.129 380.797 424.314 381.212 424.718C381.453 424.955 381.819 425.175 382.067 425.231C383.091 425.466 389.541 425.32 393.67 424.965C395.541 424.802 395.946 424.625 396.298 423.786C396.411 423.518 397.299 420.162 398.262 416.331C399.427 411.757 400.109 409.235 400.255 409.013C400.726 408.327 401.062 408.17 404.577 406.993C408.368 405.714 408.849 405.631 409.659 406.108C409.859 406.23 412.384 408.394 415.258 410.924C418.144 413.456 420.647 415.618 420.835 415.74C421.079 415.898 421.338 415.954 421.77 415.937C422.35 415.927 422.479 415.841 425.836 413.508C432.656 408.767 433.3 408.304 433.528 408.006C433.659 407.852 433.8 407.471 433.835 407.165C433.912 406.667 433.712 405.999 431.565 399.582C430.269 395.704 429.19 392.359 429.176 392.142C429.094 391.353 429.375 390.875 431.293 388.45C432.323 387.16 433.28 385.981 433.422 385.85C433.837 385.423 434.53 385.156 435.165 385.193C435.472 385.205 438.85 385.685 442.657 386.262L449.57 387.296L450.067 387.1C450.333 386.985 450.647 386.805 450.766 386.684C450.932 386.509 455.339 376.012 456.079 374.027C456.359 373.299 456.226 372.667 455.671 372.053C455.454 371.805 452.727 369.565 449.613 367.07C444.022 362.595 443.956 362.536 443.698 361.899L443.44 361.263L443.676 358.825C443.988 355.639 444.017 355.492 444.462 354.896C444.822 354.421 445.089 354.284 451.574 351.35C455.29 349.67 458.407 348.226 458.512 348.151C458.771 347.945 459.164 347.21 459.177 346.903C459.196 346.426 456.804 332.953 456.636 332.593C456.542 332.396 456.292 332.112 456.061 331.944C455.597 331.617 456.083 331.671 444.608 330.462C440.206 329.998 440.128 329.972 439.484 329.308C439.015 328.822 437.13 324.886 437.076 324.269C437.043 323.961 437.104 323.587 437.206 323.318C437.307 323.072 439.178 320.109 441.362 316.738C445.17 310.884 445.341 310.595 445.363 310.049C445.364 309.742 445.311 309.364 445.239 309.202C445.103 308.912 436.005 298.762 435.477 298.319C435.313 298.176 434.977 298.059 434.58 298.02L433.936 297.949L427.391 301.244C423.794 303.055 420.639 304.599 420.386 304.68C419.592 304.921 419.088 304.729 417.026 303.461C414.942 302.181 414.722 302.001 414.419 301.34C414.147 300.759 414.153 300.908 414.212 292.783C414.259 286.068 414.258 285.829 414.028 285.319C413.644 284.45 414.462 284.734 403.001 281.499C401.068 280.965 399.371 280.508 399.235 280.503C399.098 280.508 398.834 280.566 398.638 280.638ZM393.039 310.574C396.142 311.11 398.705 311.796 401.358 312.803C415.45 318.115 425.884 330.881 428.245 345.684C428.76 348.927 428.845 350.478 428.692 354.217C428.559 357.74 428.467 358.601 427.886 361.412C425.165 374.608 416.03 385.936 403.655 391.44C398.967 393.525 394.947 394.556 389.356 395.09C387.611 395.258 381.281 394.954 379.374 394.625C369.513 392.868 361.043 388.196 354.589 380.943C345.364 370.571 341.807 356.653 344.889 342.982C346.916 333.993 352.182 325.546 359.436 319.638C366.595 313.818 375.174 310.538 384.478 310.076C386.198 309.987 391.38 310.29 393.039 310.574Z" fill="url(#paint1_linear_41_63)"/>
</g>
<g clip-path="url(#clip2_41_63)">
<path d="M480.228 539.797C480.11 539.962 479.944 540.281 479.888 540.516C479.832 540.751 479.765 544.013 479.744 547.777C479.718 551.53 479.679 554.918 479.651 555.305C479.564 556.431 479.599 556.4 476.853 557.986L474.429 559.403L473.759 559.422C473.089 559.441 472.986 559.392 466.671 556.097C463.14 554.266 460.083 552.675 459.862 552.572C459.364 552.333 458.719 552.351 458.197 552.626C457.765 552.854 448.391 562.62 448.142 563.098C447.776 563.817 447.91 564.364 448.794 565.775C450.603 568.627 454.233 574.377 455.059 575.703L455.99 577.18L456 577.907C456.01 578.608 455.957 578.752 454.708 581.157C453.986 582.54 453.266 583.805 453.107 583.966C452.41 584.642 452.294 584.664 444.408 585.383C436.314 586.121 436.542 586.091 435.944 586.856C435.657 587.238 433.085 600.467 433.189 601.03C433.262 601.364 433.363 601.555 433.597 601.805C433.809 602.014 436.305 603.245 440.56 605.234C446.319 607.936 447.249 608.41 447.577 608.79C448.062 609.37 448.062 609.37 448.398 613.178C448.71 616.574 448.655 617.104 448.02 617.798C447.831 618.001 445.113 620.176 441.955 622.635C435.947 627.314 435.923 627.34 435.798 628.176C435.647 629.156 440.696 641.896 441.251 641.925C441.332 641.934 444.778 641.483 448.902 640.931C453.026 640.38 456.594 639.942 456.818 639.953C457.682 639.986 458.061 640.34 460.422 643.364C461.629 644.901 462.723 646.369 462.866 646.64C463.03 646.952 463.119 647.342 463.117 647.678C463.119 648.049 462.376 650.343 460.71 655.101C459.378 658.886 458.285 662.174 458.259 662.393C458.24 662.673 458.317 662.966 458.508 663.303C458.751 663.766 459.273 664.147 463.952 667.43C466.804 669.412 469.325 671.105 469.561 671.187C469.781 671.264 470.188 671.281 470.451 671.22C470.901 671.124 471.335 670.78 476.47 666.394C482.258 661.445 482.473 661.293 483.387 661.25C483.879 661.235 491.095 663.606 491.641 663.961C492.394 664.465 492.48 664.677 493.563 669.222C496.059 679.694 496.003 679.467 496.361 679.831C496.538 680.02 496.853 680.228 497.047 680.305C497.242 680.382 500.268 680.525 503.772 680.622C509.542 680.785 510.192 680.777 510.604 680.56C510.876 680.417 511.155 680.168 511.273 679.977C511.385 679.776 512.408 676.526 513.551 672.724C514.694 668.923 515.742 665.646 515.9 665.435C516.427 664.656 516.638 664.57 520.751 663.46C522.872 662.883 524.758 662.418 524.936 662.44C525.868 662.528 525.956 662.597 531.486 667.912C536.7 672.918 536.845 673.047 537.407 673.189C537.734 673.273 538.161 673.28 538.403 673.204C539.408 672.894 544.915 669.533 548.309 667.155C549.846 666.077 550.108 665.72 549.992 664.817C549.955 664.528 549.04 661.18 547.952 657.382C546.666 652.841 545.992 650.317 546.006 650.052C546.07 649.222 546.282 648.918 548.732 646.137C551.371 643.129 551.745 642.816 552.686 642.823C552.919 642.828 556.189 643.433 559.945 644.181C563.711 644.924 566.961 645.54 567.185 645.551C567.475 645.565 567.727 645.484 568.093 645.253C568.59 644.953 568.658 644.814 570.392 641.112C573.915 633.59 574.24 632.867 574.288 632.494C574.324 632.295 574.255 631.895 574.132 631.613C573.949 631.143 573.441 630.665 568.365 626.191C565.299 623.486 562.688 621.133 562.567 620.952C562.101 620.311 562.104 619.756 562.547 616.696C562.791 615.063 563.028 613.563 563.085 613.379C563.231 612.802 563.696 612.223 564.264 611.936C564.535 611.794 567.699 610.514 571.281 609.104L577.781 606.532L578.112 606.113C578.285 605.881 578.466 605.567 578.509 605.403C578.564 605.168 577.113 593.876 576.758 591.788C576.635 591.018 576.203 590.538 575.415 590.285C575.103 590.179 571.62 589.608 567.674 589.012C560.594 587.944 560.507 587.926 559.964 587.504L559.422 587.083L558.404 584.856C557.076 581.943 557.027 581.801 557.113 581.062C557.187 580.471 557.349 580.218 561.488 574.428C563.861 571.11 565.833 568.299 565.886 568.181C566.007 567.873 565.979 567.04 565.836 566.768C565.613 566.345 556.786 555.889 556.461 555.661C556.281 555.538 555.923 555.418 555.637 555.388C555.072 555.339 555.52 555.141 544.986 559.85C540.945 561.656 540.864 561.673 539.974 561.421C539.325 561.236 535.721 558.776 535.364 558.269C535.181 558.019 535.046 557.665 535 557.382C534.964 557.118 535.097 553.616 535.295 549.604C535.654 542.63 535.657 542.294 535.403 541.811C535.249 541.544 535.014 541.244 534.87 541.14C534.607 540.957 521.646 536.738 520.967 536.62C520.753 536.578 520.404 536.646 520.042 536.811L519.448 537.073L515.438 543.206C513.234 546.576 511.279 549.494 511.1 549.691C510.534 550.298 510.003 550.385 507.583 550.322C505.137 550.259 504.857 550.214 504.263 549.794C503.737 549.428 503.816 549.554 499.793 542.494C496.467 536.662 496.345 536.456 495.891 536.129C495.122 535.57 495.972 535.406 484.435 538.354C482.495 538.861 480.797 539.318 480.677 539.381C480.561 539.455 480.362 539.637 480.228 539.797ZM490.397 568.505C493.351 567.413 495.912 566.72 498.712 566.262C513.567 563.79 528.997 569.602 538.463 581.225C540.535 583.772 541.386 585.072 543.129 588.383C544.781 591.498 545.133 592.29 546.04 595.013C550.303 607.794 548.081 622.176 540.136 633.143C537.125 637.298 534.164 640.206 529.595 643.472C528.169 644.493 522.54 647.403 520.726 648.076C511.312 651.501 501.642 651.706 492.421 648.668C479.238 644.321 469.181 634.063 464.992 620.69C462.237 611.896 462.557 601.947 465.871 593.199C469.146 584.573 474.923 577.433 482.741 572.367C484.184 571.428 488.819 569.091 490.397 568.505Z" fill="url(#paint2_linear_41_63)"/>
</g>
<g clip-path="url(#clip3_41_63)">
<path d="M244.96 540.061C244.84 540.225 244.671 540.543 244.614 540.777C244.556 541.012 244.463 544.273 244.412 548.036C244.357 551.79 244.291 555.178 244.26 555.564C244.164 556.689 244.199 556.658 241.441 558.223L239.006 559.621L238.336 559.634C237.665 559.648 237.563 559.598 231.274 556.253C227.758 554.395 224.713 552.779 224.494 552.675C223.997 552.432 223.352 552.445 222.828 552.716C222.394 552.94 212.943 562.632 212.691 563.108C212.32 563.824 212.449 564.372 213.322 565.79C215.108 568.657 218.692 574.435 219.508 575.768L220.427 577.251L220.432 577.978C220.436 578.68 220.383 578.823 219.114 581.219C218.381 582.596 217.651 583.856 217.491 584.015C216.789 584.685 216.672 584.707 208.781 585.363C200.682 586.038 200.91 586.009 200.305 586.769C200.016 587.149 197.34 600.358 197.439 600.921C197.51 601.256 197.609 601.448 197.841 601.699C198.052 601.91 200.538 603.161 204.777 605.184C210.515 607.93 211.441 608.412 211.766 608.795C212.247 609.379 212.247 609.379 212.552 613.189C212.837 616.587 212.778 617.117 212.137 617.806C211.947 618.007 209.212 620.161 206.035 622.595C199.991 627.226 199.965 627.252 199.835 628.087C199.675 629.066 204.624 641.845 205.178 641.879C205.26 641.888 208.709 641.464 212.837 640.945C216.966 640.427 220.537 640.016 220.761 640.029C221.625 640.069 222.001 640.426 224.338 643.468C225.533 645.015 226.615 646.491 226.756 646.764C226.917 647.078 227.004 647.468 226.998 647.804C226.998 648.175 226.237 650.462 224.533 655.208C223.172 658.982 222.053 662.261 222.025 662.48C222.004 662.76 222.079 663.054 222.266 663.392C222.506 663.857 223.025 664.242 227.678 667.561C230.514 669.566 233.022 671.279 233.257 671.363C233.476 671.441 233.883 671.462 234.147 671.403C234.597 671.311 235.035 670.97 240.204 666.624C246.031 661.721 246.247 661.571 247.161 661.535C247.654 661.523 254.85 663.952 255.394 664.311C256.142 664.821 256.226 665.033 257.274 669.587C259.687 680.079 259.633 679.85 259.989 680.217C260.164 680.408 260.477 680.618 260.671 680.697C260.865 680.776 263.89 680.942 267.392 681.067C273.162 681.276 273.812 681.273 274.226 681.059C274.498 680.918 274.779 680.671 274.899 680.481C275.013 680.281 276.061 677.039 277.234 673.247C278.407 669.454 279.48 666.186 279.64 665.976C280.173 665.201 280.385 665.117 284.506 664.039C286.633 663.479 288.521 663.029 288.7 663.052C289.631 663.147 289.718 663.218 295.206 668.576C300.381 673.623 300.525 673.753 301.086 673.899C301.412 673.986 301.839 673.996 302.082 673.922C303.089 673.62 308.622 670.302 312.035 667.952C313.58 666.885 313.844 666.531 313.736 665.627C313.701 665.338 312.812 661.982 311.755 658.176C310.504 653.625 309.85 651.096 309.867 650.831C309.937 650.001 310.151 649.699 312.624 646.937C315.286 643.95 315.663 643.64 316.603 643.654C316.837 643.662 320.102 644.293 323.852 645.07C327.611 645.843 330.856 646.484 331.08 646.497C331.37 646.513 331.623 646.434 331.991 646.206C332.49 645.91 332.559 645.772 334.323 642.083C337.904 634.59 338.235 633.868 338.286 633.497C338.324 633.298 338.257 632.897 338.137 632.614C337.957 632.143 337.453 631.661 332.413 627.146C329.368 624.417 326.775 622.044 326.656 621.863C326.195 621.217 326.203 620.663 326.67 617.606C326.927 615.976 327.176 614.477 327.234 614.294C327.384 613.717 327.854 613.142 328.424 612.86C328.696 612.72 331.87 611.465 335.463 610.084L341.983 607.562L342.318 607.146C342.493 606.915 342.676 606.603 342.72 606.44C342.778 606.205 341.415 594.902 341.077 592.811C340.96 592.04 340.531 591.557 339.746 591.297C339.434 591.189 335.956 590.591 332.015 589.963C324.943 588.84 324.857 588.821 324.317 588.395L323.778 587.97L322.777 585.734C321.473 582.811 321.425 582.669 321.517 581.931C321.595 581.34 321.759 581.089 325.944 575.332C328.343 572.032 330.337 569.236 330.391 569.119C330.514 568.812 330.493 567.978 330.352 567.705C330.133 567.281 321.389 556.756 321.065 556.526C320.886 556.401 320.529 556.278 320.244 556.246C319.679 556.192 320.128 555.998 309.558 560.624C305.502 562.397 305.421 562.414 304.534 562.155C303.886 561.965 300.301 559.476 299.948 558.967C299.767 558.715 299.635 558.361 299.591 558.077C299.557 557.813 299.717 554.312 299.948 550.302C300.361 543.33 300.367 542.994 300.116 542.509C299.965 542.242 299.733 541.939 299.589 541.834C299.327 541.65 286.4 537.329 285.722 537.205C285.508 537.162 285.159 537.227 284.795 537.389L284.199 537.646L280.141 543.747C277.911 547.1 275.933 550.003 275.753 550.198C275.182 550.8 274.649 550.883 272.23 550.801C269.785 550.719 269.505 550.672 268.915 550.247C268.392 549.877 268.47 550.003 264.502 542.912C261.222 537.054 261.102 536.847 260.651 536.517C259.886 535.952 260.738 535.794 249.178 538.651C247.233 539.143 245.532 539.586 245.411 539.649C245.295 539.721 245.095 539.902 244.96 540.061ZM254.901 568.848C257.864 567.779 260.431 567.107 263.234 566.671C278.109 564.316 293.492 570.249 302.866 581.947C304.918 584.51 305.759 585.817 307.475 589.142C309.103 592.269 309.449 593.063 310.335 595.793C314.497 608.608 312.161 622.972 304.13 633.877C301.087 638.008 298.103 640.892 293.508 644.122C292.074 645.131 286.423 647.997 284.602 648.656C275.163 652.006 265.491 652.135 256.294 649.024C243.146 644.574 233.17 634.237 229.086 620.832C226.401 612.016 226.8 602.07 230.182 593.348C233.525 584.748 239.358 577.654 247.215 572.65C248.666 571.722 253.319 569.422 254.901 568.848Z" fill="url(#paint3_linear_41_63)"/>
</g>
<defs>
<linearGradient id="paint0_linear_41_63" x1="463.864" y1="561.224" x2="325.452" y2="425.686" gradientUnits="userSpaceOnUse">
<stop offset="0.9999" stop-color="#68BC14"/>
<stop offset="1" stop-color="#97ED42"/>
</linearGradient>
<linearGradient id="paint1_linear_41_63" x1="450.122" y1="397.667" x2="334.306" y2="284.972" gradientUnits="userSpaceOnUse">
<stop offset="0.96875" stop-color="#043E94"/>
<stop offset="0.9999" stop-color="#032B66"/>
<stop offset="1" stop-color="#7CCF29"/>
</linearGradient>
<linearGradient id="paint2_linear_41_63" x1="583.46" y1="615.228" x2="426.744" y2="575.809" gradientUnits="userSpaceOnUse">
<stop offset="0.494792" stop-color="#0671AD"/>
<stop offset="1" stop-color="#347CE9"/>
</linearGradient>
<linearGradient id="paint3_linear_41_63" x1="347.593" y1="616.303" x2="191.194" y2="575.65" gradientUnits="userSpaceOnUse">
<stop offset="0.96875" stop-color="#048633"/>
<stop offset="1" stop-color="#05732D"/>
</linearGradient>
<clipPath id="clip0_41_63">
<rect width="174.25" height="174.25" fill="white" transform="translate(304.201 416.209) rotate(2.52228)"/>
</clipPath>
<clipPath id="clip1_41_63">
<rect width="145.354" height="145.354" fill="white" transform="translate(316.554 277.123) rotate(2.34092)"/>
</clipPath>
<clipPath id="clip2_41_63">
<rect width="145.354" height="145.354" fill="white" transform="translate(407.45 577.921) rotate(-27.7579)"/>
</clipPath>
<clipPath id="clip3_41_63">
<rect width="145.354" height="145.354" fill="white" transform="translate(171.883 577.61) rotate(-27.3064)"/>
</clipPath>
</defs>
</svg>
